<?xml version="1.0" standalone="no"?>
<!DOCTYPE svg PUBLIC "-//W3C//DTD SVG 20010904//EN"
 "http://www.w3.org/TR/2001/REC-SVG-20010904/DTD/svg10.dtd">
<svg version="1.0" xmlns="http://www.w3.org/2000/svg"
 width="166.000000pt" height="144.000000pt" viewBox="0 0 166.000000 144.000000"
 preserveAspectRatio="xMidYMid meet">

<g transform="translate(0.000000,144.000000) scale(0.100000,-0.100000)"
fill="#000000" stroke="none">
<path d="M215 1082 c-109 -190 -199 -354 -199 -362 0 -8 90 -171 199 -362
l200 -347 415 0 415 0 200 346 c110 191 201 352 203 358 1 6 -35 76 -81 155
-47 80 -138 237 -203 350 l-119 205 -415 2 -415 2 -200 -347z m770 54 c53 -17
70 -27 69 -40 -2 -17 -245 -807 -251 -815 -5 -6 -156 38 -167 49 -4 4 48 189
118 414 69 223 126 408 126 411 0 10 36 4 105 -19z m-512 -348 l-67 -68 67
-68 67 -68 0 -114 0 -115 -182 182 -183 183 180 180 180 180 3 -112 3 -112
-68 -68z m836 112 l173 -180 -173 -180 c-95 -99 -177 -180 -181 -180 -4 0 -8
51 -8 112 l0 112 67 68 67 68 -67 68 -67 68 0 112 c0 61 4 112 8 112 5 0 86
-81 181 -180z"/>
</g>
</svg>
